<mxfile host="app.diagrams.net" modified="2021-12-12T15:13:10.807Z" agent="5.0 (X11)" etag="-6Fo624yY9oj2QxJo4qj" version="15.9.4" type="github">
  <diagram id="jddh2_qIyFVqlwiWdALQ" name="Page-1">
    <mxGraphModel dx="2303" dy="573" grid="1" gridSize="10" guides="1" tooltips="1" connect="1" arrows="1" fold="1" page="1" pageScale="1" pageWidth="850" pageHeight="1100" math="0" shadow="0">
      <root>
        <mxCell id="0" />
        <mxCell id="1" parent="0" />
        <mxCell id="FHFPzKlaMVbqeNrYEVrI-1" value="Recipe" style="rounded=1;arcSize=10;whiteSpace=wrap;html=1;align=center;" parent="1" vertex="1">
          <mxGeometry x="410" y="630" width="100" height="40" as="geometry" />
        </mxCell>
        <mxCell id="FHFPzKlaMVbqeNrYEVrI-2" value="&lt;div&gt;title&lt;/div&gt;" style="ellipse;whiteSpace=wrap;html=1;align=center;rounded=1;" parent="1" vertex="1">
          <mxGeometry x="190" y="420" width="100" height="40" as="geometry" />
        </mxCell>
        <mxCell id="FHFPzKlaMVbqeNrYEVrI-4" value="" style="endArrow=none;html=1;rounded=0;curved=1;exitX=0.5;exitY=1;exitDx=0;exitDy=0;entryX=0.5;entryY=0;entryDx=0;entryDy=0;" parent="1" source="FHFPzKlaMVbqeNrYEVrI-2" target="FHFPzKlaMVbqeNrYEVrI-1" edge="1">
          <mxGeometry relative="1" as="geometry">
            <mxPoint x="340" y="700" as="sourcePoint" />
            <mxPoint x="480" y="590" as="targetPoint" />
          </mxGeometry>
        </mxCell>
        <mxCell id="FHFPzKlaMVbqeNrYEVrI-6" value="User" style="rounded=1;arcSize=10;whiteSpace=wrap;html=1;align=center;" parent="1" vertex="1">
          <mxGeometry x="-200" y="640" width="100" height="40" as="geometry" />
        </mxCell>
        <mxCell id="FHFPzKlaMVbqeNrYEVrI-7" value="&lt;div&gt;Ingredient&lt;/div&gt;" style="rounded=1;arcSize=10;whiteSpace=wrap;html=1;align=center;" parent="1" vertex="1">
          <mxGeometry x="410" y="920" width="100" height="40" as="geometry" />
        </mxCell>
        <mxCell id="FHFPzKlaMVbqeNrYEVrI-8" value="&lt;div&gt;Step&lt;/div&gt;" style="rounded=1;arcSize=10;whiteSpace=wrap;html=1;align=center;" parent="1" vertex="1">
          <mxGeometry x="790" y="630" width="100" height="40" as="geometry" />
        </mxCell>
        <mxCell id="FHFPzKlaMVbqeNrYEVrI-9" value="Author" style="shape=rhombus;perimeter=rhombusPerimeter;whiteSpace=wrap;html=1;align=center;rounded=1;" parent="1" vertex="1">
          <mxGeometry x="90" y="570" width="120" height="60" as="geometry" />
        </mxCell>
        <mxCell id="FHFPzKlaMVbqeNrYEVrI-11" value="" style="shape=link;html=1;rounded=0;curved=1;entryX=1;entryY=0.5;entryDx=0;entryDy=0;exitX=0;exitY=0.5;exitDx=0;exitDy=0;" parent="1" source="FHFPzKlaMVbqeNrYEVrI-1" target="FHFPzKlaMVbqeNrYEVrI-9" edge="1">
          <mxGeometry relative="1" as="geometry">
            <mxPoint x="230" y="650" as="sourcePoint" />
            <mxPoint x="390" y="650" as="targetPoint" />
          </mxGeometry>
        </mxCell>
        <mxCell id="FHFPzKlaMVbqeNrYEVrI-12" value="N" style="resizable=0;html=1;align=right;verticalAlign=bottom;rounded=1;" parent="FHFPzKlaMVbqeNrYEVrI-11" connectable="0" vertex="1">
          <mxGeometry x="1" relative="1" as="geometry" />
        </mxCell>
        <mxCell id="FHFPzKlaMVbqeNrYEVrI-13" value="" style="endArrow=none;html=1;rounded=0;curved=1;exitX=1;exitY=0.5;exitDx=0;exitDy=0;entryX=0;entryY=0.5;entryDx=0;entryDy=0;" parent="1" source="FHFPzKlaMVbqeNrYEVrI-6" target="FHFPzKlaMVbqeNrYEVrI-9" edge="1">
          <mxGeometry relative="1" as="geometry">
            <mxPoint x="-30" y="660" as="sourcePoint" />
            <mxPoint x="-40" y="690" as="targetPoint" />
          </mxGeometry>
        </mxCell>
        <mxCell id="FHFPzKlaMVbqeNrYEVrI-14" value="1" style="resizable=0;html=1;align=right;verticalAlign=bottom;rounded=1;" parent="FHFPzKlaMVbqeNrYEVrI-13" connectable="0" vertex="1">
          <mxGeometry x="1" relative="1" as="geometry" />
        </mxCell>
        <mxCell id="FHFPzKlaMVbqeNrYEVrI-15" value="Likes" style="shape=rhombus;perimeter=rhombusPerimeter;whiteSpace=wrap;html=1;align=center;rounded=1;" parent="1" vertex="1">
          <mxGeometry x="90" y="630" width="120" height="60" as="geometry" />
        </mxCell>
        <mxCell id="FHFPzKlaMVbqeNrYEVrI-16" value="" style="endArrow=none;html=1;rounded=0;curved=1;entryX=1;entryY=0.5;entryDx=0;entryDy=0;exitX=0;exitY=0.5;exitDx=0;exitDy=0;" parent="1" source="FHFPzKlaMVbqeNrYEVrI-1" target="FHFPzKlaMVbqeNrYEVrI-15" edge="1">
          <mxGeometry relative="1" as="geometry">
            <mxPoint x="230" y="650" as="sourcePoint" />
            <mxPoint x="390" y="650" as="targetPoint" />
          </mxGeometry>
        </mxCell>
        <mxCell id="FHFPzKlaMVbqeNrYEVrI-17" value="N" style="resizable=0;html=1;align=right;verticalAlign=bottom;rounded=1;" parent="FHFPzKlaMVbqeNrYEVrI-16" connectable="0" vertex="1">
          <mxGeometry x="1" relative="1" as="geometry" />
        </mxCell>
        <mxCell id="FHFPzKlaMVbqeNrYEVrI-18" value="" style="endArrow=none;html=1;rounded=0;curved=1;exitX=1;exitY=0.5;exitDx=0;exitDy=0;entryX=0;entryY=0.5;entryDx=0;entryDy=0;" parent="1" source="FHFPzKlaMVbqeNrYEVrI-6" target="FHFPzKlaMVbqeNrYEVrI-15" edge="1">
          <mxGeometry relative="1" as="geometry">
            <mxPoint x="-30" y="660" as="sourcePoint" />
            <mxPoint x="130" y="660" as="targetPoint" />
          </mxGeometry>
        </mxCell>
        <mxCell id="FHFPzKlaMVbqeNrYEVrI-19" value="M" style="resizable=0;html=1;align=right;verticalAlign=bottom;rounded=1;" parent="FHFPzKlaMVbqeNrYEVrI-18" connectable="0" vertex="1">
          <mxGeometry x="1" relative="1" as="geometry" />
        </mxCell>
        <mxCell id="FHFPzKlaMVbqeNrYEVrI-20" value="makes with" style="shape=rhombus;perimeter=rhombusPerimeter;whiteSpace=wrap;html=1;align=center;rounded=1;" parent="1" vertex="1">
          <mxGeometry x="400" y="760" width="120" height="60" as="geometry" />
        </mxCell>
        <mxCell id="FHFPzKlaMVbqeNrYEVrI-21" value="" style="shape=link;html=1;rounded=0;curved=1;entryX=0.5;entryY=0;entryDx=0;entryDy=0;exitX=0.5;exitY=1;exitDx=0;exitDy=0;" parent="1" source="FHFPzKlaMVbqeNrYEVrI-1" target="FHFPzKlaMVbqeNrYEVrI-20" edge="1">
          <mxGeometry relative="1" as="geometry">
            <mxPoint x="390" y="650" as="sourcePoint" />
            <mxPoint x="550" y="650" as="targetPoint" />
          </mxGeometry>
        </mxCell>
        <mxCell id="FHFPzKlaMVbqeNrYEVrI-22" value="M" style="resizable=0;html=1;align=right;verticalAlign=bottom;rounded=1;" parent="FHFPzKlaMVbqeNrYEVrI-21" connectable="0" vertex="1">
          <mxGeometry x="1" relative="1" as="geometry">
            <mxPoint x="20" as="offset" />
          </mxGeometry>
        </mxCell>
        <mxCell id="FHFPzKlaMVbqeNrYEVrI-23" value="" style="shape=link;html=1;rounded=0;curved=1;entryX=0.5;entryY=1;entryDx=0;entryDy=0;exitX=0.5;exitY=0;exitDx=0;exitDy=0;" parent="1" source="FHFPzKlaMVbqeNrYEVrI-7" target="FHFPzKlaMVbqeNrYEVrI-20" edge="1">
          <mxGeometry relative="1" as="geometry">
            <mxPoint x="390" y="650" as="sourcePoint" />
            <mxPoint x="550" y="650" as="targetPoint" />
          </mxGeometry>
        </mxCell>
        <mxCell id="FHFPzKlaMVbqeNrYEVrI-24" value="N" style="resizable=0;html=1;align=right;verticalAlign=bottom;rounded=1;" parent="FHFPzKlaMVbqeNrYEVrI-23" connectable="0" vertex="1">
          <mxGeometry x="1" relative="1" as="geometry">
            <mxPoint x="20" y="10" as="offset" />
          </mxGeometry>
        </mxCell>
        <mxCell id="FHFPzKlaMVbqeNrYEVrI-25" value="Contains" style="shape=rhombus;perimeter=rhombusPerimeter;whiteSpace=wrap;html=1;align=center;rounded=1;" parent="1" vertex="1">
          <mxGeometry x="600" y="620" width="120" height="60" as="geometry" />
        </mxCell>
        <mxCell id="FHFPzKlaMVbqeNrYEVrI-26" value="" style="shape=link;html=1;rounded=0;curved=1;entryX=0;entryY=0.5;entryDx=0;entryDy=0;exitX=1;exitY=0.5;exitDx=0;exitDy=0;" parent="1" source="FHFPzKlaMVbqeNrYEVrI-1" target="FHFPzKlaMVbqeNrYEVrI-25" edge="1">
          <mxGeometry relative="1" as="geometry">
            <mxPoint x="420" y="680" as="sourcePoint" />
            <mxPoint x="580" y="680" as="targetPoint" />
          </mxGeometry>
        </mxCell>
        <mxCell id="FHFPzKlaMVbqeNrYEVrI-27" value="1" style="resizable=0;html=1;align=right;verticalAlign=bottom;rounded=1;" parent="FHFPzKlaMVbqeNrYEVrI-26" connectable="0" vertex="1">
          <mxGeometry x="1" relative="1" as="geometry" />
        </mxCell>
        <mxCell id="FHFPzKlaMVbqeNrYEVrI-28" value="" style="shape=link;html=1;rounded=0;curved=1;entryX=1;entryY=0.5;entryDx=0;entryDy=0;exitX=0;exitY=0.5;exitDx=0;exitDy=0;" parent="1" source="FHFPzKlaMVbqeNrYEVrI-8" target="FHFPzKlaMVbqeNrYEVrI-25" edge="1">
          <mxGeometry relative="1" as="geometry">
            <mxPoint x="630" y="690" as="sourcePoint" />
            <mxPoint x="730" y="680" as="targetPoint" />
          </mxGeometry>
        </mxCell>
        <mxCell id="FHFPzKlaMVbqeNrYEVrI-29" value="N" style="resizable=0;html=1;align=right;verticalAlign=bottom;rounded=1;" parent="FHFPzKlaMVbqeNrYEVrI-28" connectable="0" vertex="1">
          <mxGeometry x="1" relative="1" as="geometry" />
        </mxCell>
        <mxCell id="FHFPzKlaMVbqeNrYEVrI-30" value="Rating" style="shape=rhombus;perimeter=rhombusPerimeter;whiteSpace=wrap;html=1;align=center;rounded=1;" parent="1" vertex="1">
          <mxGeometry x="90" y="690" width="120" height="60" as="geometry" />
        </mxCell>
        <mxCell id="FHFPzKlaMVbqeNrYEVrI-32" value="" style="endArrow=none;html=1;rounded=0;curved=1;exitX=1;exitY=0.5;exitDx=0;exitDy=0;entryX=0;entryY=0.5;entryDx=0;entryDy=0;" parent="1" source="FHFPzKlaMVbqeNrYEVrI-6" target="FHFPzKlaMVbqeNrYEVrI-30" edge="1">
          <mxGeometry relative="1" as="geometry">
            <mxPoint x="-90" y="670.0000000000001" as="sourcePoint" />
            <mxPoint x="-20" y="670.0000000000001" as="targetPoint" />
          </mxGeometry>
        </mxCell>
        <mxCell id="FHFPzKlaMVbqeNrYEVrI-33" value="M" style="resizable=0;html=1;align=right;verticalAlign=bottom;rounded=1;" parent="FHFPzKlaMVbqeNrYEVrI-32" connectable="0" vertex="1">
          <mxGeometry x="1" relative="1" as="geometry" />
        </mxCell>
        <mxCell id="FHFPzKlaMVbqeNrYEVrI-34" value="" style="endArrow=none;html=1;rounded=0;curved=1;entryX=0.957;entryY=0.503;entryDx=0;entryDy=0;entryPerimeter=0;exitX=0;exitY=0.5;exitDx=0;exitDy=0;" parent="1" source="FHFPzKlaMVbqeNrYEVrI-1" target="FHFPzKlaMVbqeNrYEVrI-30" edge="1">
          <mxGeometry relative="1" as="geometry">
            <mxPoint x="370" y="700" as="sourcePoint" />
            <mxPoint x="360" y="660.0000000000001" as="targetPoint" />
          </mxGeometry>
        </mxCell>
        <mxCell id="FHFPzKlaMVbqeNrYEVrI-35" value="N" style="resizable=0;html=1;align=right;verticalAlign=bottom;rounded=1;" parent="FHFPzKlaMVbqeNrYEVrI-34" connectable="0" vertex="1">
          <mxGeometry x="1" relative="1" as="geometry" />
        </mxCell>
        <mxCell id="FHFPzKlaMVbqeNrYEVrI-37" value="&lt;div&gt;stars&lt;/div&gt;" style="ellipse;whiteSpace=wrap;html=1;align=center;rounded=1;" parent="1" vertex="1">
          <mxGeometry x="45" y="770" width="100" height="40" as="geometry" />
        </mxCell>
        <mxCell id="FHFPzKlaMVbqeNrYEVrI-38" value="" style="endArrow=none;html=1;rounded=0;curved=1;exitX=0.5;exitY=1;exitDx=0;exitDy=0;entryX=0.5;entryY=0;entryDx=0;entryDy=0;" parent="1" source="FHFPzKlaMVbqeNrYEVrI-30" target="FHFPzKlaMVbqeNrYEVrI-37" edge="1">
          <mxGeometry relative="1" as="geometry">
            <mxPoint x="280" y="680" as="sourcePoint" />
            <mxPoint x="440" y="680" as="targetPoint" />
          </mxGeometry>
        </mxCell>
        <mxCell id="FHFPzKlaMVbqeNrYEVrI-40" value="&lt;div&gt;amount&lt;/div&gt;_in_ml" style="ellipse;whiteSpace=wrap;html=1;align=center;rounded=1;" parent="1" vertex="1">
          <mxGeometry x="410" y="420" width="100" height="40" as="geometry" />
        </mxCell>
        <mxCell id="FHFPzKlaMVbqeNrYEVrI-43" value="" style="endArrow=none;html=1;rounded=0;curved=1;exitX=0.5;exitY=1;exitDx=0;exitDy=0;entryX=0.5;entryY=0;entryDx=0;entryDy=0;" parent="1" source="FHFPzKlaMVbqeNrYEVrI-40" target="FHFPzKlaMVbqeNrYEVrI-1" edge="1">
          <mxGeometry relative="1" as="geometry">
            <mxPoint x="420" y="650" as="sourcePoint" />
            <mxPoint x="580" y="650" as="targetPoint" />
          </mxGeometry>
        </mxCell>
        <mxCell id="FHFPzKlaMVbqeNrYEVrI-44" value="ABV" style="ellipse;whiteSpace=wrap;html=1;align=center;rounded=1;" parent="1" vertex="1">
          <mxGeometry x="630" y="420" width="100" height="40" as="geometry" />
        </mxCell>
        <mxCell id="FHFPzKlaMVbqeNrYEVrI-45" value="" style="endArrow=none;html=1;rounded=0;curved=1;exitX=0.5;exitY=1;exitDx=0;exitDy=0;entryX=0.5;entryY=0;entryDx=0;entryDy=0;" parent="1" source="FHFPzKlaMVbqeNrYEVrI-44" target="FHFPzKlaMVbqeNrYEVrI-1" edge="1">
          <mxGeometry relative="1" as="geometry">
            <mxPoint x="470" y="590.0000000000001" as="sourcePoint" />
            <mxPoint x="470" y="640.0000000000001" as="targetPoint" />
          </mxGeometry>
        </mxCell>
        <mxCell id="FHFPzKlaMVbqeNrYEVrI-46" value="provider" style="ellipse;whiteSpace=wrap;html=1;align=center;rounded=1;" parent="1" vertex="1">
          <mxGeometry x="-360" y="540" width="100" height="40" as="geometry" />
        </mxCell>
        <mxCell id="FHFPzKlaMVbqeNrYEVrI-47" value="" style="endArrow=none;html=1;rounded=0;curved=1;exitX=1;exitY=1;exitDx=0;exitDy=0;entryX=0;entryY=0.5;entryDx=0;entryDy=0;" parent="1" source="FHFPzKlaMVbqeNrYEVrI-46" target="FHFPzKlaMVbqeNrYEVrI-6" edge="1">
          <mxGeometry relative="1" as="geometry">
            <mxPoint x="-130" y="700" as="sourcePoint" />
            <mxPoint x="30" y="700" as="targetPoint" />
          </mxGeometry>
        </mxCell>
        <mxCell id="FHFPzKlaMVbqeNrYEVrI-48" value="providerUserId" style="ellipse;whiteSpace=wrap;html=1;align=center;rounded=1;" parent="1" vertex="1">
          <mxGeometry x="-360" y="590" width="100" height="40" as="geometry" />
        </mxCell>
        <mxCell id="FHFPzKlaMVbqeNrYEVrI-49" value="" style="endArrow=none;html=1;rounded=0;curved=1;exitX=1;exitY=0.5;exitDx=0;exitDy=0;entryX=0;entryY=0.5;entryDx=0;entryDy=0;" parent="1" source="FHFPzKlaMVbqeNrYEVrI-48" target="FHFPzKlaMVbqeNrYEVrI-6" edge="1">
          <mxGeometry relative="1" as="geometry">
            <mxPoint x="-264.76720867514655" y="604.1909853947326" as="sourcePoint" />
            <mxPoint x="-189.99999999999977" y="670.0000000000001" as="targetPoint" />
          </mxGeometry>
        </mxCell>
        <mxCell id="FHFPzKlaMVbqeNrYEVrI-50" value="username" style="ellipse;whiteSpace=wrap;html=1;align=center;rounded=1;" parent="1" vertex="1">
          <mxGeometry x="-360" y="640" width="100" height="40" as="geometry" />
        </mxCell>
        <mxCell id="FHFPzKlaMVbqeNrYEVrI-51" value="" style="endArrow=none;html=1;rounded=0;curved=1;exitX=1;exitY=0.5;exitDx=0;exitDy=0;entryX=0;entryY=0.5;entryDx=0;entryDy=0;" parent="1" source="FHFPzKlaMVbqeNrYEVrI-50" target="FHFPzKlaMVbqeNrYEVrI-6" edge="1">
          <mxGeometry relative="1" as="geometry">
            <mxPoint x="-249.99999999999955" y="640.0000000000001" as="sourcePoint" />
            <mxPoint x="-189.99999999999977" y="670.0000000000001" as="targetPoint" />
          </mxGeometry>
        </mxCell>
        <mxCell id="FHFPzKlaMVbqeNrYEVrI-52" value="&lt;div&gt;description&lt;/div&gt;" style="ellipse;whiteSpace=wrap;html=1;align=center;rounded=1;" parent="1" vertex="1">
          <mxGeometry x="300" y="420" width="100" height="40" as="geometry" />
        </mxCell>
        <mxCell id="FHFPzKlaMVbqeNrYEVrI-53" value="" style="endArrow=none;html=1;rounded=0;curved=1;exitX=0.5;exitY=1;exitDx=0;exitDy=0;entryX=0.5;entryY=0;entryDx=0;entryDy=0;" parent="1" source="FHFPzKlaMVbqeNrYEVrI-52" target="FHFPzKlaMVbqeNrYEVrI-1" edge="1">
          <mxGeometry relative="1" as="geometry">
            <mxPoint x="560" y="590.0000000000001" as="sourcePoint" />
            <mxPoint x="460" y="600" as="targetPoint" />
          </mxGeometry>
        </mxCell>
        <mxCell id="FHFPzKlaMVbqeNrYEVrI-54" value="&lt;div&gt;avatar&lt;/div&gt;" style="ellipse;whiteSpace=wrap;html=1;align=center;rounded=1;" parent="1" vertex="1">
          <mxGeometry x="-360" y="690" width="100" height="40" as="geometry" />
        </mxCell>
        <mxCell id="FHFPzKlaMVbqeNrYEVrI-55" value="" style="endArrow=none;html=1;rounded=0;curved=1;exitX=1;exitY=0.5;exitDx=0;exitDy=0;entryX=0;entryY=0.5;entryDx=0;entryDy=0;" parent="1" source="FHFPzKlaMVbqeNrYEVrI-54" target="FHFPzKlaMVbqeNrYEVrI-6" edge="1">
          <mxGeometry relative="1" as="geometry">
            <mxPoint x="-249.99999999999955" y="670.0000000000001" as="sourcePoint" />
            <mxPoint x="-189.99999999999977" y="670.0000000000001" as="targetPoint" />
          </mxGeometry>
        </mxCell>
        <mxCell id="FHFPzKlaMVbqeNrYEVrI-56" value="stepNo" style="ellipse;whiteSpace=wrap;html=1;align=center;rounded=1;" parent="1" vertex="1">
          <mxGeometry x="980" y="580" width="100" height="40" as="geometry" />
        </mxCell>
        <mxCell id="FHFPzKlaMVbqeNrYEVrI-57" value="" style="endArrow=none;html=1;rounded=0;curved=1;exitX=0;exitY=0.5;exitDx=0;exitDy=0;entryX=1;entryY=0.5;entryDx=0;entryDy=0;" parent="1" source="FHFPzKlaMVbqeNrYEVrI-56" target="FHFPzKlaMVbqeNrYEVrI-8" edge="1">
          <mxGeometry relative="1" as="geometry">
            <mxPoint x="780" y="670" as="sourcePoint" />
            <mxPoint x="940" y="670" as="targetPoint" />
          </mxGeometry>
        </mxCell>
        <mxCell id="FHFPzKlaMVbqeNrYEVrI-58" value="instruction" style="ellipse;whiteSpace=wrap;html=1;align=center;rounded=1;" parent="1" vertex="1">
          <mxGeometry x="980" y="630" width="100" height="40" as="geometry" />
        </mxCell>
        <mxCell id="FHFPzKlaMVbqeNrYEVrI-60" value="" style="endArrow=none;html=1;rounded=0;curved=1;entryX=0;entryY=0.5;entryDx=0;entryDy=0;exitX=1;exitY=0.5;exitDx=0;exitDy=0;" parent="1" source="FHFPzKlaMVbqeNrYEVrI-8" target="FHFPzKlaMVbqeNrYEVrI-58" edge="1">
          <mxGeometry relative="1" as="geometry">
            <mxPoint x="780" y="670" as="sourcePoint" />
            <mxPoint x="940" y="670" as="targetPoint" />
          </mxGeometry>
        </mxCell>
        <mxCell id="FHFPzKlaMVbqeNrYEVrI-61" value="image" style="ellipse;whiteSpace=wrap;html=1;align=center;rounded=1;" parent="1" vertex="1">
          <mxGeometry x="520" y="420" width="100" height="40" as="geometry" />
        </mxCell>
        <mxCell id="FHFPzKlaMVbqeNrYEVrI-62" value="" style="endArrow=none;html=1;rounded=0;curved=1;exitX=0.5;exitY=1;exitDx=0;exitDy=0;entryX=0.5;entryY=0;entryDx=0;entryDy=0;" parent="1" source="FHFPzKlaMVbqeNrYEVrI-61" target="FHFPzKlaMVbqeNrYEVrI-1" edge="1">
          <mxGeometry relative="1" as="geometry">
            <mxPoint x="690" y="570.0000000000001" as="sourcePoint" />
            <mxPoint x="470" y="640.0000000000001" as="targetPoint" />
          </mxGeometry>
        </mxCell>
        <mxCell id="FHFPzKlaMVbqeNrYEVrI-63" value="image" style="ellipse;whiteSpace=wrap;html=1;align=center;rounded=1;" parent="1" vertex="1">
          <mxGeometry x="980" y="680" width="100" height="40" as="geometry" />
        </mxCell>
        <mxCell id="FHFPzKlaMVbqeNrYEVrI-64" value="" style="endArrow=none;html=1;rounded=0;curved=1;entryX=0;entryY=0.5;entryDx=0;entryDy=0;exitX=1;exitY=0.5;exitDx=0;exitDy=0;" parent="1" source="FHFPzKlaMVbqeNrYEVrI-8" target="FHFPzKlaMVbqeNrYEVrI-63" edge="1">
          <mxGeometry relative="1" as="geometry">
            <mxPoint x="1010" y="660.0000000000001" as="sourcePoint" />
            <mxPoint x="1100" y="660.0000000000001" as="targetPoint" />
          </mxGeometry>
        </mxCell>
        <mxCell id="FHFPzKlaMVbqeNrYEVrI-65" value="amount_used" style="ellipse;whiteSpace=wrap;html=1;align=center;rounded=1;" parent="1" vertex="1">
          <mxGeometry x="640" y="740" width="100" height="40" as="geometry" />
        </mxCell>
        <mxCell id="FHFPzKlaMVbqeNrYEVrI-66" value="" style="endArrow=none;html=1;rounded=0;curved=1;entryX=1;entryY=0.5;entryDx=0;entryDy=0;exitX=0;exitY=0.5;exitDx=0;exitDy=0;" parent="1" source="FHFPzKlaMVbqeNrYEVrI-65" target="FHFPzKlaMVbqeNrYEVrI-20" edge="1">
          <mxGeometry relative="1" as="geometry">
            <mxPoint x="535" y="950.0000000000001" as="sourcePoint" />
            <mxPoint x="525" y="990" as="targetPoint" />
          </mxGeometry>
        </mxCell>
        <mxCell id="FHFPzKlaMVbqeNrYEVrI-67" value="unit" style="ellipse;whiteSpace=wrap;html=1;align=center;rounded=1;" parent="1" vertex="1">
          <mxGeometry x="640" y="790" width="100" height="40" as="geometry" />
        </mxCell>
        <mxCell id="FHFPzKlaMVbqeNrYEVrI-68" value="" style="endArrow=none;html=1;rounded=0;curved=1;entryX=1;entryY=0.5;entryDx=0;entryDy=0;exitX=0;exitY=0.5;exitDx=0;exitDy=0;" parent="1" source="FHFPzKlaMVbqeNrYEVrI-67" target="FHFPzKlaMVbqeNrYEVrI-20" edge="1">
          <mxGeometry relative="1" as="geometry">
            <mxPoint x="535" y="1000.0000000000001" as="sourcePoint" />
            <mxPoint x="520" y="840" as="targetPoint" />
          </mxGeometry>
        </mxCell>
        <mxCell id="FHFPzKlaMVbqeNrYEVrI-69" value="name" style="ellipse;whiteSpace=wrap;html=1;align=center;rounded=1;" parent="1" vertex="1">
          <mxGeometry x="410" y="1010" width="100" height="40" as="geometry" />
        </mxCell>
        <mxCell id="FHFPzKlaMVbqeNrYEVrI-70" value="" style="endArrow=none;html=1;rounded=0;curved=1;entryX=0.5;entryY=1;entryDx=0;entryDy=0;exitX=0.5;exitY=0;exitDx=0;exitDy=0;" parent="1" source="FHFPzKlaMVbqeNrYEVrI-69" target="FHFPzKlaMVbqeNrYEVrI-7" edge="1">
          <mxGeometry relative="1" as="geometry">
            <mxPoint x="235" y="1220" as="sourcePoint" />
            <mxPoint x="220" y="1010" as="targetPoint" />
          </mxGeometry>
        </mxCell>
        <mxCell id="FHFPzKlaMVbqeNrYEVrI-73" value="comment" style="ellipse;whiteSpace=wrap;html=1;align=center;rounded=1;" parent="1" vertex="1">
          <mxGeometry x="155" y="770" width="100" height="40" as="geometry" />
        </mxCell>
        <mxCell id="FHFPzKlaMVbqeNrYEVrI-74" value="" style="endArrow=none;html=1;rounded=0;curved=1;exitX=0.5;exitY=1;exitDx=0;exitDy=0;entryX=0.5;entryY=0;entryDx=0;entryDy=0;" parent="1" source="FHFPzKlaMVbqeNrYEVrI-30" target="FHFPzKlaMVbqeNrYEVrI-73" edge="1">
          <mxGeometry relative="1" as="geometry">
            <mxPoint x="160.00000000000023" y="760" as="sourcePoint" />
            <mxPoint x="110.00000000000023" y="780" as="targetPoint" />
          </mxGeometry>
        </mxCell>
      </root>
    </mxGraphModel>
  </diagram>
</mxfile>
